<svg width="62" height="62" viewBox="0 0 62 62" fill="none" xmlns="http://www.w3.org/2000/svg">
<path d="M24.0868 18.8071H25.087C26.0748 18.8058 27.0218 18.4128 27.7203 17.7143C28.4188 17.0158 28.8118 16.0688 28.8131 15.081V15.0398H26.6334V15.081C26.6327 15.4909 26.4696 15.8839 26.1797 16.1738C25.8899 16.4636 25.4969 16.6267 25.087 16.6274H24.0868C23.6768 16.6267 23.2839 16.4636 22.994 16.1738C22.7042 15.8839 22.541 15.4909 22.5404 15.081V11.2327C22.5414 10.8229 22.7046 10.4303 22.9945 10.1407C23.2843 9.8511 23.6771 9.68814 24.0868 9.6875H25.087C25.4969 9.68814 25.8899 9.85127 26.1797 10.1411C26.4696 10.431 26.6327 10.8239 26.6334 11.2339H28.8131C28.8118 10.246 28.4188 9.29906 27.7203 8.60056C27.0218 7.90207 26.0748 7.50909 25.087 7.50781H24.0868C23.0989 7.50877 22.1517 7.90165 21.4531 8.60021C20.7546 9.29877 20.3617 10.246 20.3607 11.2339V15.0822C20.362 16.0699 20.755 17.0168 21.4535 17.7151C22.1521 18.4134 23.0991 18.8061 24.0868 18.8071Z" fill="url(#paint0_linear_737_298)"/>
<path d="M34.3265 18.8071C35.4469 18.8058 36.5211 18.3601 37.3134 17.5678C38.1057 16.7755 38.5513 15.7013 38.5526 14.5809V11.7328C38.5526 11.1778 38.4433 10.6282 38.2309 10.1155C38.0185 9.60274 37.7072 9.13685 37.3148 8.74441C36.9224 8.35197 36.4565 8.04068 35.9437 7.82829C35.431 7.61591 34.8814 7.50659 34.3265 7.50659C33.7715 7.50659 33.2219 7.61591 32.7092 7.82829C32.1964 8.04068 31.7305 8.35197 31.3381 8.74441C30.9457 9.13685 30.6344 9.60274 30.422 10.1155C30.2096 10.6282 30.1003 11.1778 30.1003 11.7328V14.5809C30.1012 15.7014 30.5468 16.7758 31.3392 17.5682C32.1315 18.3605 33.2059 18.8061 34.3265 18.8071ZM32.28 11.7328C32.28 11.19 32.4956 10.6695 32.8794 10.2857C33.2632 9.90189 33.7837 9.68628 34.3265 9.68628C34.8692 9.68628 35.3897 9.90189 35.7735 10.2857C36.1573 10.6695 36.3729 11.19 36.3729 11.7328V14.5809C36.3729 15.1237 36.1573 15.6442 35.7735 16.028C35.3897 16.4118 34.8692 16.6274 34.3265 16.6274C33.7837 16.6274 33.2632 16.4118 32.8794 16.028C32.4956 15.6442 32.28 15.1237 32.28 14.5809V11.7328Z" fill="url(#paint1_linear_737_298)"/>
<path d="M43.9329 18.7998L41.8585 19.4586C41.2957 19.6374 40.8153 20.0117 40.5042 20.5137C40.1931 21.0158 40.0718 21.6125 40.1621 22.1961C40.2525 22.7798 40.5486 23.3119 40.9969 23.6964C41.4452 24.0808 42.0163 24.2923 42.6069 24.2926H45.9248V22.1129H42.6069C42.5368 22.1122 42.4693 22.0866 42.4163 22.0407C42.3634 21.9948 42.3285 21.9315 42.3179 21.8623C42.3073 21.793 42.3216 21.7222 42.3584 21.6626C42.3951 21.6029 42.4518 21.5582 42.5185 21.5365L44.5928 20.8778C45.1255 20.71 45.5907 20.3765 45.9205 19.9258C46.2503 19.4751 46.4274 18.9308 46.4262 18.3723V18.1144C46.4252 17.4173 46.1478 16.749 45.6547 16.2561C45.1616 15.7633 44.4932 15.4861 43.796 15.4855H42.7619C42.0649 15.4864 41.3968 15.7637 40.904 16.2565C40.4112 16.7494 40.1339 17.4175 40.1329 18.1144V18.4329H42.3126V18.1144C42.3129 17.9954 42.3604 17.8813 42.4446 17.7971C42.5287 17.7129 42.6428 17.6655 42.7619 17.6652H43.796C43.9153 17.6652 44.0297 17.7125 44.1141 17.7967C44.1986 17.8809 44.2462 17.9952 44.2465 18.1144V18.3723C44.2467 18.4677 44.2164 18.5607 44.1599 18.6376C44.1035 18.7145 44.0239 18.7714 43.9329 18.7998Z" fill="url(#paint2_linear_737_298)"/>
<path d="M27.5089 23.8724C29.324 23.8785 31.0886 24.4701 32.5407 25.5591C33.9927 26.6482 35.0547 28.1766 35.5689 29.9174C35.7574 30.5724 36.1556 31.1475 36.7025 31.5544C37.2493 31.9613 37.9146 32.1775 38.5962 32.1697H38.6132C39.4666 32.1699 40.3115 32.34 41.0986 32.6701C41.8856 33.0002 42.5991 33.4836 43.1973 34.0923C43.7956 34.7009 44.2667 35.4226 44.5832 36.2152C44.8998 37.0078 45.0553 37.8554 45.0408 38.7088C45.0235 39.6042 44.8141 40.4854 44.4269 41.2929C45.1366 41.4714 45.8149 41.7573 46.4383 42.1406C46.932 41.0772 47.1977 39.9222 47.2181 38.7499C47.2374 37.6073 47.029 36.4723 46.6051 35.411C46.1813 34.3498 45.5503 33.3835 44.7492 32.5686C43.948 31.7537 42.9926 31.1064 41.9387 30.6646C40.8849 30.2227 39.7535 29.995 38.6108 29.9949H38.589C38.3798 29.9978 38.1755 29.9319 38.0076 29.8071C37.8398 29.6823 37.7176 29.5057 37.6602 29.3046C37.0201 27.1072 35.6843 25.1768 33.8536 23.8032C32.0228 22.4297 29.7958 21.6871 27.5071 21.6871C25.2183 21.6871 22.9914 22.4297 21.1606 23.8032C19.3298 25.1768 17.9941 27.1072 17.354 29.3046C17.2945 29.504 17.1714 29.6785 17.0035 29.8014C16.8356 29.9243 16.632 29.9888 16.424 29.9852H16.4046C15.2612 29.9856 14.1293 30.2138 13.0751 30.6565C12.0208 31.0991 11.0653 31.7473 10.2643 32.5632C9.46322 33.3791 8.83273 34.3464 8.40958 35.4086C7.98642 36.4709 7.77909 37.6067 7.79967 38.7499C7.87717 43.4145 11.7958 47.2108 16.5293 47.2108H19.9974C20.1183 46.4505 20.3603 45.7146 20.7143 45.0311H16.5293C12.9752 45.0311 10.0363 42.1963 9.97815 38.7136C9.96369 37.8603 10.1192 37.0126 10.4357 36.22C10.7523 35.4274 11.2234 34.7058 11.8217 34.0971C12.4199 33.4885 13.1334 33.005 13.9204 32.6749C14.7075 32.3448 15.5524 32.1747 16.4058 32.1745H16.4276C16.6415 32.1742 16.8549 32.1527 17.0646 32.1104C17.8356 32.9311 18.27 34.0117 18.2815 35.1377L20.7434 35.0675C20.7217 33.4672 20.1408 31.925 19.1014 30.7081C19.2515 30.4658 19.368 30.2043 19.4477 29.9307C19.9597 28.1874 21.0209 26.656 22.4734 25.5644C23.9258 24.4728 25.692 23.8793 27.5089 23.8724Z" fill="url(#paint3_linear_737_298)"/>
<path d="M42.8939 43.1493C42.3995 43.5149 41.9965 43.9899 41.7162 44.5371C41.436 45.0844 41.2862 45.6891 41.2785 46.3038L39.0988 46.2421C39.1103 45.393 39.2994 44.5556 39.6539 43.784C40.0085 43.0123 40.5206 42.3234 41.1574 41.7616C40.6899 40.445 39.8171 39.3106 38.6643 38.5213C37.5115 37.732 36.1381 37.3286 34.7416 37.369C33.3451 37.4093 31.9973 37.8914 30.8921 38.746C29.7868 39.6005 28.9809 40.7835 28.5903 42.1249C28.5029 42.4219 28.3211 42.6823 28.0725 42.8667C27.8238 43.0511 27.5218 43.1495 27.2122 43.1469H27.2001C26.5048 43.1468 25.8163 43.2852 25.1751 43.5541C24.5338 43.823 23.9525 44.217 23.4651 44.713C22.9778 45.209 22.5942 45.7972 22.3366 46.4431C22.0791 47.089 21.9529 47.7798 21.9652 48.4751C22.0125 51.3462 24.415 53.6215 27.2861 53.6215H42.5742C45.4453 53.6215 47.8478 51.3462 47.8963 48.4751C47.9213 47.1104 47.4123 45.79 46.4779 44.7951C45.5434 43.8003 44.2574 43.2097 42.8939 43.1493Z" fill="url(#paint4_linear_737_298)"/>
<defs>
<linearGradient id="paint0_linear_737_298" x1="20.3607" y1="8.16694" x2="29.7633" y2="9.25559" gradientUnits="userSpaceOnUse">
<stop stop-color="#97BC5D"/>
<stop offset="1" stop-color="#C0D997"/>
</linearGradient>
<linearGradient id="paint1_linear_737_298" x1="30.1003" y1="8.16579" x2="39.5029" y2="9.25433" gradientUnits="userSpaceOnUse">
<stop stop-color="#97BC5D"/>
<stop offset="1" stop-color="#C0D997"/>
</linearGradient>
<linearGradient id="paint2_linear_737_298" x1="40.1329" y1="15.9992" x2="47.1418" y2="16.7744" gradientUnits="userSpaceOnUse">
<stop stop-color="#97BC5D"/>
<stop offset="1" stop-color="#C0D997"/>
</linearGradient>
<linearGradient id="paint3_linear_737_298" x1="7.79828" y1="23.176" x2="49.8368" y2="33.2256" gradientUnits="userSpaceOnUse">
<stop stop-color="#97BC5D"/>
<stop offset="1" stop-color="#C0D997"/>
</linearGradient>
<linearGradient id="paint4_linear_737_298" x1="21.9644" y1="38.3144" x2="49.5193" y2="45.1185" gradientUnits="userSpaceOnUse">
<stop stop-color="#97BC5D"/>
<stop offset="1" stop-color="#C0D997"/>
</linearGradient>
</defs>
</svg>
