<svg width="62" height="62" viewBox="0 0 62 62" fill="none" xmlns="http://www.w3.org/2000/svg">
<path d="M36.9566 18.6205C37.0299 18.4287 37.0554 18.2219 37.0309 18.018C37.0064 17.8141 36.9327 17.6192 36.8162 17.4501C36.6996 17.281 36.5437 17.1427 36.3619 17.0473C36.18 16.9519 35.9777 16.9021 35.7723 16.9022H27.538C27.2476 16.9025 26.9661 17.0022 26.7405 17.1849C26.5148 17.3676 26.3586 17.6222 26.298 17.9061L22.7414 34.6509C22.7022 34.8352 22.7045 35.026 22.7483 35.2092C22.7921 35.3925 22.8762 35.5637 22.9945 35.7104C23.1129 35.857 23.2624 35.9754 23.4323 36.0569C23.6022 36.1384 23.7882 36.181 23.9766 36.1816H29.3532C29.54 36.1816 29.7245 36.2229 29.8934 36.3025C30.0624 36.3821 30.2117 36.4981 30.3307 36.6422C30.4496 36.7862 30.5353 36.9548 30.5815 37.1358C30.6277 37.3168 30.6333 37.5057 30.598 37.6892L29.266 44.5915C29.0238 45.8521 30.73 46.4854 31.3682 45.3726L39.8399 30.6112C39.9505 30.4185 40.0084 30.2 40.008 29.9778C40.0075 29.7555 39.9487 29.5373 39.8373 29.345C39.7259 29.1527 39.566 28.993 39.3734 28.882C39.1809 28.771 38.9626 28.7125 38.7403 28.7125H34.9598C34.7544 28.7126 34.5521 28.6627 34.3703 28.5673C34.1884 28.4719 34.0325 28.3337 33.9158 28.1646C33.7992 27.9956 33.7254 27.8007 33.7007 27.5969C33.6761 27.393 33.7013 27.1861 33.7743 26.9942L36.9566 18.6205Z" fill="url(#paint0_linear_737_318)"/>
<path d="M48.9401 48.9436C52.3713 45.4379 54.7198 41.0178 55.7044 36.2122C56.6891 31.4067 56.2682 26.4191 54.4922 21.8465C49.3942 8.74414 34.5856 2.23171 21.4821 7.33097L22.2728 9.36292C34.2611 4.6996 47.7982 10.6538 52.4615 22.6372C54.0857 26.8203 54.4699 31.383 53.5678 35.7788C52.6658 40.1746 50.5159 44.2173 47.3755 47.4227L45.8255 45.9127C45.6624 45.7535 45.4557 45.6463 45.2316 45.6047C45.0075 45.5631 44.7761 45.5889 44.5667 45.6789C44.3573 45.7689 44.1793 45.919 44.0552 46.1102C43.9312 46.3014 43.8667 46.5251 43.8699 46.753L43.928 50.8569C43.9325 51.1617 44.0576 51.4523 44.276 51.665C44.4943 51.8777 44.7881 51.9951 45.0929 51.9916L49.1968 51.9431C49.4246 51.9403 49.6464 51.87 49.8343 51.7411C50.0221 51.6121 50.1675 51.4304 50.252 51.2188C50.3365 51.0073 50.3564 50.7754 50.3091 50.5526C50.2618 50.3297 50.1495 50.1259 49.9863 49.9669L48.9401 48.9436Z" fill="url(#paint1_linear_737_318)"/>
<path d="M22.0209 52.1913C18.5666 50.675 15.5321 48.3428 13.1781 45.3949C10.824 42.4471 9.22079 38.9719 8.50616 35.2677C7.79154 31.5636 7.98687 27.7414 9.07537 24.1294C10.1639 20.5174 12.113 17.2237 14.7553 14.5312L16.1285 15.8632C16.2917 16.0224 16.4984 16.1295 16.7225 16.1711C16.9465 16.2127 17.1779 16.1869 17.3874 16.0969C17.5968 16.0069 17.7748 15.8568 17.8988 15.6656C18.0228 15.4744 18.0874 15.2507 18.0842 15.0228L18.0261 10.9189C18.0242 10.7679 17.9925 10.6188 17.9329 10.48C17.8733 10.3412 17.787 10.2155 17.6788 10.1101C17.5706 10.0048 17.4427 9.92174 17.3024 9.86583C17.1621 9.80992 17.0121 9.78221 16.8611 9.78429L12.7573 9.83273C12.5276 9.83335 12.3034 9.90262 12.1134 10.0316C11.9235 10.1606 11.7764 10.3435 11.6911 10.5567C11.6059 10.77 11.5863 11.0038 11.6349 11.2283C11.6836 11.4527 11.7982 11.6574 11.9641 11.8162L13.1908 13.0114C9.10442 17.1736 6.56888 22.6112 6.00719 28.4169C5.4455 34.2226 6.89164 40.0454 10.1043 44.9137C13.317 49.7821 18.1019 53.4015 23.6608 55.1682C29.2196 56.9349 35.2162 56.742 40.65 54.6217L39.8605 52.5909C37.0082 53.7071 33.9628 54.2464 30.9007 54.1778C27.8385 54.1093 24.8204 53.4341 22.0209 52.1913Z" fill="url(#paint2_linear_737_318)"/>
<defs>
<linearGradient id="paint0_linear_737_318" x1="22.7136" y1="18.5965" x2="42.0461" y2="20.3782" gradientUnits="userSpaceOnUse">
<stop stop-color="#97BC5D"/>
<stop offset="1" stop-color="#C0D997"/>
</linearGradient>
<linearGradient id="paint1_linear_737_318" x1="21.4821" y1="8.30064" x2="60.1289" y2="12.7797" gradientUnits="userSpaceOnUse">
<stop stop-color="#97BC5D"/>
<stop offset="1" stop-color="#C0D997"/>
</linearGradient>
<linearGradient id="paint2_linear_737_318" x1="5.88867" y1="12.5014" x2="44.5606" y2="16.9682" gradientUnits="userSpaceOnUse">
<stop stop-color="#97BC5D"/>
<stop offset="1" stop-color="#C0D997"/>
</linearGradient>
</defs>
</svg>
