<svg width="62" height="62" viewBox="0 0 62 62" fill="none" xmlns="http://www.w3.org/2000/svg">
<path d="M47.6298 17.1784C47.0606 16.487 46.5242 15.8343 46.2675 15.2155C45.9914 14.5507 45.9042 13.6764 45.8049 12.7524C45.6475 11.2218 45.467 9.48289 44.2924 8.31191C43.1178 7.14094 41.3862 6.95687 39.8519 6.79824C38.9268 6.70258 38.0537 6.61176 37.3877 6.33688C36.7701 6.08016 36.1162 5.5425 35.4247 4.97336C34.2138 3.97797 32.8454 2.85059 31.1102 2.85059C29.3749 2.85059 28.0041 3.97797 26.7944 4.97336C26.1029 5.5425 25.4502 6.08016 24.8314 6.33688C24.1666 6.61176 23.2923 6.70016 22.3684 6.79824C20.8378 6.95687 19.0989 7.13609 17.9279 8.3107C16.7569 9.48531 16.5729 11.217 16.4142 12.7524C16.3186 13.6764 16.2277 14.5507 15.9529 15.2155C15.6961 15.8343 15.1585 16.487 14.5893 17.1784C13.5952 18.3893 12.4678 19.7577 12.4678 21.4942C12.4678 23.2307 13.5952 24.6002 14.5893 25.8088C15.1585 26.5002 15.6961 27.1541 15.9529 27.7717C16.2277 28.4365 16.3161 29.3108 16.4142 30.2359C16.5729 31.7666 16.7521 33.5055 17.9279 34.6764C19.1037 35.8474 20.8341 36.0303 22.3684 36.1889C23.2923 36.2846 24.1666 36.3754 24.8314 36.6515C25.4502 36.907 26.1029 37.4446 26.7944 38.0138C28.0053 39.0092 29.3749 40.1366 31.1102 40.1366C32.8454 40.1366 34.2162 39.0092 35.4247 38.0138C36.1162 37.4446 36.7701 36.907 37.3877 36.6515C38.0537 36.3754 38.9268 36.2882 39.8519 36.1889C41.3825 36.0315 43.1214 35.8511 44.2924 34.6764C45.4634 33.5018 45.6475 31.7702 45.8049 30.2359C45.9005 29.3108 45.9914 28.4377 46.2675 27.7717C46.5242 27.1541 47.0606 26.5002 47.6298 25.8088C48.6252 24.5978 49.7525 23.2295 49.7525 21.4942C49.7525 19.7589 48.6252 18.3881 47.6298 17.1784ZM45.9466 24.4234C45.3011 25.2081 44.6339 26.0195 44.2512 26.9373C43.8541 27.8964 43.7427 28.9717 43.6349 30.0107C43.5017 31.2943 43.377 32.5064 42.7485 33.1349C42.12 33.7634 40.9079 33.8881 39.6243 34.0213C38.5853 34.1291 37.51 34.2405 36.5509 34.6377C35.633 35.0179 34.8217 35.6852 34.0382 36.333C33.021 37.1698 32.062 37.9593 31.1077 37.9593C30.1535 37.9593 29.1932 37.1698 28.1773 36.333C27.3926 35.6876 26.5812 35.0204 25.6646 34.6377C24.7055 34.2405 23.6302 34.1291 22.59 34.0213C21.3064 33.8881 20.0943 33.7634 19.4658 33.1349C18.8373 32.5064 18.7126 31.2943 18.5806 30.0107C18.4728 28.9717 18.3614 27.8964 17.963 26.9373C17.5828 26.0195 16.9155 25.2081 16.2677 24.4234C15.437 23.4075 14.6523 22.4484 14.6523 21.4942C14.6523 20.54 15.4418 19.5797 16.2774 18.5637C16.9228 17.779 17.59 16.9677 17.9727 16.0498C18.3711 15.092 18.4825 14.0166 18.5903 12.9764C18.7223 11.6929 18.8482 10.4807 19.4767 9.85223C20.1052 9.22375 21.3125 9.09902 22.5924 8.96098C23.6326 8.85926 24.7031 8.74785 25.6718 8.35551C26.5885 7.97527 27.3998 7.30805 28.1845 6.6602C29.2005 5.82465 30.1608 5.03391 31.115 5.03391C32.0692 5.03391 33.0283 5.82465 34.0455 6.6602C34.8289 7.30562 35.6403 7.97285 36.5582 8.35551C37.5172 8.75391 38.5925 8.86531 39.6315 8.97187C40.9151 9.10508 42.1273 9.23102 42.7557 9.85828C43.3842 10.4855 43.5089 11.6989 43.6421 12.9825C43.7499 14.0227 43.8613 15.098 44.2585 16.0559C44.6387 16.9737 45.306 17.7851 45.9538 18.5698C46.7906 19.5857 47.5801 20.546 47.5801 21.5002C47.5801 22.4545 46.7833 23.4075 45.9466 24.4234Z" fill="url(#paint0_linear_737_341)"/>
<path d="M31.3633 11.4761C29.3301 11.4758 27.3425 12.0785 25.6519 13.2079C23.9612 14.3373 22.6435 15.9427 21.8652 17.821C21.087 19.6994 20.8833 21.7663 21.2798 23.7604C21.6763 25.7546 22.6552 27.5863 24.0928 29.0241C25.5304 30.4619 27.3621 31.441 29.3561 31.8378C31.3502 32.2345 33.4172 32.031 35.2956 31.253C37.1741 30.475 38.7796 29.1574 39.9092 27.4669C41.0388 25.7764 41.6417 23.7889 41.6417 21.7557C41.6417 19.0296 40.5588 16.4151 38.6313 14.4873C36.7037 12.5596 34.0894 11.4764 31.3633 11.4761ZM36.9081 19.6705C33.0053 21.6673 30.5011 25.8778 30.4756 25.9201C30.3762 26.0896 30.2388 26.2336 30.0743 26.341C29.9098 26.4484 29.7226 26.5161 29.5275 26.5389C29.4785 26.5447 29.4291 26.5476 29.3797 26.5474C29.2082 26.5474 29.0384 26.5126 28.8806 26.4452C28.7229 26.3777 28.5804 26.2791 28.4619 26.1551L25.6246 23.1919C25.5092 23.071 25.4187 22.9286 25.3583 22.7728C25.2978 22.6169 25.2687 22.4507 25.2725 22.2836C25.2764 22.1165 25.3131 21.9518 25.3805 21.7989C25.448 21.646 25.5449 21.5079 25.6658 21.3924C25.7867 21.277 25.9291 21.1865 26.0849 21.1261C26.2407 21.0657 26.407 21.0365 26.5741 21.0403C26.7411 21.0442 26.9059 21.0809 27.0588 21.1483C27.2117 21.2158 27.3498 21.3128 27.4653 21.4336L29.2114 23.2573C30.3981 21.6395 32.6735 18.9827 35.7505 17.406C35.8992 17.3299 36.0614 17.2839 36.2279 17.2705C36.3944 17.2571 36.5619 17.2766 36.7208 17.3279C36.8797 17.3793 37.027 17.4614 37.1542 17.5696C37.2814 17.6779 37.3861 17.8101 37.4621 17.9588C37.5382 18.1075 37.5843 18.2697 37.5977 18.4362C37.6111 18.6027 37.5916 18.7702 37.5402 18.9291C37.4889 19.0881 37.4068 19.2354 37.2985 19.3626C37.1903 19.4898 37.058 19.5944 36.9094 19.6705H36.9081Z" fill="url(#paint1_linear_737_341)"/>
<path d="M41.5024 42.4519C39.2513 42.3441 35.0287 42.5984 32.0195 45.4998C31.7075 45.8028 31.4162 46.1264 31.1477 46.4686C30.8792 46.1264 30.5879 45.8028 30.2758 45.4998C27.2666 42.5936 23.0429 42.3441 20.7929 42.4519C20.0709 42.4836 19.3869 42.7847 18.8758 43.2957C18.3648 43.8068 18.0637 44.4908 18.032 45.2128C17.9254 47.4616 18.1785 51.6853 21.0799 54.6945C23.1724 56.8645 26.224 57.9943 30.162 58.0548C30.2758 58.0548 32.43 58.0548 32.7388 58.0379C36.385 57.8744 39.2331 56.7531 41.2154 54.6945C44.1217 51.6853 44.3711 47.4616 44.2645 45.2128C44.2328 44.4906 43.9316 43.8064 43.4203 43.2953C42.909 42.7843 42.2247 42.4833 41.5024 42.4519ZM27.5439 50.9805L26.8706 53.0149C26.9748 53.0512 28.9958 53.7633 30.0263 55.8715C26.7774 55.7928 24.295 54.8895 22.6493 53.182C20.3158 50.7602 20.1184 47.2145 20.2093 45.3109C20.2173 45.1312 20.2924 44.961 20.4197 44.8339C20.547 44.7068 20.7173 44.632 20.8971 44.6243C22.7946 44.5335 26.3463 44.7309 28.7682 47.0644C30.4029 48.6386 31.299 50.9818 31.4419 54.0309C30.4876 52.6371 29.1263 51.5718 27.5439 50.9805ZM39.6448 53.1784C38.2268 54.6509 36.184 55.524 33.5647 55.7868C33.6105 55.5832 33.6349 55.3754 33.6374 55.1668C33.6652 52.5645 33.2462 50.3315 32.3877 48.4872C32.7098 47.9685 33.0941 47.4911 33.532 47.0656C35.6754 44.9997 38.7003 44.6086 40.6838 44.6086C40.9405 44.6086 41.1803 44.6086 41.3983 44.6255C41.578 44.6332 41.7483 44.708 41.8757 44.8351C42.003 44.9622 42.0781 45.1324 42.0861 45.3121C42.1757 47.2145 41.9795 50.7614 39.6448 53.182V53.1784Z" fill="url(#paint2_linear_737_341)"/>
<defs>
<linearGradient id="paint0_linear_737_341" x1="12.4678" y1="5.0256" x2="53.5171" y2="11.379" gradientUnits="userSpaceOnUse">
<stop stop-color="#97BC5D"/>
<stop offset="1" stop-color="#C0D997"/>
</linearGradient>
<linearGradient id="paint1_linear_737_341" x1="21.0824" y1="12.6754" x2="43.7175" y2="16.1788" gradientUnits="userSpaceOnUse">
<stop stop-color="#97BC5D"/>
<stop offset="1" stop-color="#C0D997"/>
</linearGradient>
<linearGradient id="paint2_linear_737_341" x1="18.0129" y1="43.3437" x2="45.75" y2="50.563" gradientUnits="userSpaceOnUse">
<stop stop-color="#97BC5D"/>
<stop offset="1" stop-color="#C0D997"/>
</linearGradient>
</defs>
</svg>
