<svg width="1440" height="647" viewBox="0 0 1440 647" fill="none" xmlns="http://www.w3.org/2000/svg">
<path fill-rule="evenodd" clip-rule="evenodd" d="M812.849 447.064C936.293 455.334 1037.56 555.562 1146.99 613.288C1281.8 684.401 1454.34 638.823 1532.37 511.487C1610.41 384.151 1564.39 223.276 1429.58 152.163C1355.67 113.173 1270.42 109.262 1195.61 134.672C1139.19 153.84 1083.14 178.379 1023.61 181.213L511.303 205.609C361.915 212.723 227.125 85.2858 89.9431 25.7154C68.6614 16.474 45.8363 9.48884 21.7845 5.16867C-129.396 -21.9864 -271.789 66.4338 -296.258 202.661C-320.727 338.888 -218.007 471.335 -66.8258 498.49C-17.2318 507.398 31.4165 503.869 75.2665 490.294C168.011 461.584 260.066 410.027 356.935 416.517L812.849 447.064Z" fill="#F7F8F3"/>
</svg>
